HIERARCHY
ROOT Hips
{
	OFFSET 0.00 0.00 0.00
	CHANNELS 6 Xposition Yposition Zposition Xrotation Yrotation Zrotation
	JOINT Spine
	{
		OFFSET 0.00000 1.72282 2.58423
		CHANNELS 3 Xrotation Yrotation Zrotation
		JOINT Spine1
		{
			OFFSET 0.00000 0.59833 3.39329
			CHANNELS 3 Xrotation Yrotation Zrotation
			JOINT Spine2
			{
				OFFSET 0.00000 0.30031 3.43252
				CHANNELS 3 Xrotation Yrotation Zrotation
				JOINT Spine3
				{
					OFFSET 0.00000 0.00000 3.44564
					CHANNELS 3 Xrotation Yrotation Zrotation
					JOINT Neck
					{
						OFFSET 0.00000 -1.29210 9.04479
						CHANNELS 3 Xrotation Yrotation Zrotation
						JOINT Head
						{
							OFFSET 0.00000 -0.82270 4.66577
							CHANNELS 3 Xrotation Yrotation Zrotation
							End Site
							{
								OFFSET 0.00000 0.00001 5.57762
							}
						}
					}
					JOINT RightShoulder
					{
						OFFSET -1.17512 -1.95853 6.34567
						CHANNELS 3 Xrotation Yrotation Zrotation
						JOINT RightArm
						{
							OFFSET -5.83645 0.00000 0.00000
							CHANNELS 3 Xrotation Yrotation Zrotation
							JOINT RightForeArm
							{
								OFFSET -10.88642 0.00000 0.00000
								CHANNELS 3 Xrotation Yrotation Zrotation
								JOINT RightHand
								{
									OFFSET -10.19495 0.00000 0.00000
									CHANNELS 3 Xrotation Yrotation Zrotation
									JOINT RightHandEnd
									{
										OFFSET -2.73592 0.00000 0.00000
										CHANNELS 3 Xrotation Yrotation Zrotation
										End Site
										{
											OFFSET -2.73592 0.00000 0.00000
										}
									}
									JOINT RightHandThumb1
									{
										OFFSET -1.09437 -1.82395 -0.72958
										CHANNELS 3 Yrotation Xrotation Zrotation
										End Site
										{
											OFFSET -2.64270 -0.70811 0.00000
										}
									}
								}
							}
						}
					}
					JOINT LeftShoulder
					{
						OFFSET 1.17512 -1.95853 6.34567
						CHANNELS 3 Xrotation Yrotation Zrotation
						JOINT LeftArm
						{
							OFFSET 5.83645 0.00000 0.00000
							CHANNELS 3 Xrotation Yrotation Zrotation
							JOINT LeftForeArm
							{
								OFFSET 10.88642 0.00000 0.00000
								CHANNELS 3 Xrotation Yrotation Zrotation
								JOINT LeftHand
								{
									OFFSET 10.19495 0.00000 0.00000
									CHANNELS 3 Xrotation Yrotation Zrotation
									JOINT LeftHandEnd
									{
										OFFSET 2.73592 0.00000 0.00000
										CHANNELS 3 Xrotation Yrotation Zrotation
										End Site
										{
											OFFSET 2.73592 0.00000 0.00000
										}
									}
									JOINT LeftHandThumb1
									{
										OFFSET 1.09437 -1.82395 -0.72958
										CHANNELS 3 Yrotation Xrotation Zrotation
										End Site
										{
											OFFSET 2.64270 -0.70811 0.00000
										}
									}
								}
							}
						}
					}
				}
			}
		}
	}
	JOINT RightUpLeg
	{
		OFFSET -3.48620 0.00000 -1.01844
		CHANNELS 3 Xrotation Yrotation Zrotation
		JOINT RightLeg
		{
			OFFSET 0.00001 0.00000 -16.68821
			CHANNELS 3 Xrotation Yrotation Zrotation
			JOINT RightFoot
			{
				OFFSET 0.00001 0.00000 -16.77536
				CHANNELS 3 Xrotation Yrotation Zrotation
				JOINT RightToeBase
				{
					OFFSET 0.00000 -4.94516 -1.79989
					CHANNELS 3 Xrotation Yrotation Zrotation
					End Site
					{
						OFFSET 0.00000 -2.82030 -0.00000
					}
				}
			}
		}
	}
	JOINT LeftUpLeg
	{
		OFFSET 3.48620 0.00000 -1.01844
		CHANNELS 3 Xrotation Yrotation Zrotation
		JOINT LeftLeg
		{
			OFFSET 0.00001 0.00000 -16.68821
			CHANNELS 3 Xrotation Yrotation Zrotation
			JOINT LeftFoot
			{
				OFFSET 0.00001 0.00000 -16.77536
				CHANNELS 3 Xrotation Yrotation Zrotation
				JOINT LeftToeBase
				{
					OFFSET 0.00000 -4.94516 -1.79989
					CHANNELS 3 Xrotation Yrotation Zrotation
					End Site
					{
						OFFSET 0.00000 -2.82030 -0.00000
					}
				}
			}
		}
	}
}
MOTION
Frames: 10
Frame Time: 0.008333
 7.0564 35.3106 22.1578 -100.4318 1.2447 3.5242 8.2503 0.3391 -0.2620 4.4096 -0.5721 -0.1907 5.6111 -3.4907 -3.0006 0.6561 -0.8013 -0.3776 13.8849 -4.3021 -1.5105 2.3438 6.0187 -3.7385 4.3570 -3.6212 4.4589 41.3317 -45.6081 50.2194 0.0000 0.0000 17.9160 -1.5735 -7.9495 -6.6810 -0.0000 0.0000 0.0000 -0.0000 -0.0000 0.0000 -9.6866 1.1076 -16.8144 9.9814 61.4621 -36.7010 -0.0000 -0.0000 -56.0187 -21.1648 1.3765 10.7250 0.0000 -0.0000 0.0000 -0.0000 0.0000 0.0000 -44.6808 5.1885 -6.2596 23.5803 0.0000 0.0000 34.6336 -8.1911 10.8624 3.1858 0.0000 0.0000 -9.0631 5.1650 1.5006 38.0825 0.0000 0.0000 -18.9697 -7.1998 -7.0068 -2.1358 0.0000 -0.0000
 7.0535 35.3338 22.3610 -100.7038 1.0683 3.8611 8.2226 0.4045 -0.2781 4.4136 -0.5535 -0.1936 5.6660 -3.5089 -3.0739 0.6943 -0.8044 -0.3891 13.8106 -4.2461 -1.5326 2.2856 6.0423 -3.6397 4.3318 -3.6167 4.3647 41.6188 -45.5170 50.3464 0.0000 0.0000 17.8721 -1.3199 -7.9716 -6.7927 0.0000 -0.0000 0.0000 -0.0000 0.0000 0.0000 -9.7700 1.0026 -17.0901 10.3887 61.6085 -37.7656 -0.0000 -0.0000 -55.9528 -20.8068 1.3947 10.2592 0.0000 0.0000 -0.0000 0.0000 0.0000 0.0000 -44.8755 5.2266 -6.2565 24.0243 0.0000 0.0000 34.6098 -7.6043 11.0557 1.4849 0.0000 0.0000 -8.2564 5.3506 1.1746 37.7851 0.0000 0.0000 -19.1763 -7.1837 -7.0339 -2.1112 0.0000 -0.0000
 7.0503 35.3598 22.5593 -100.9105 0.9215 4.1707 8.1423 0.4348 -0.2748 4.3969 -0.5259 -0.1954 5.7338 -3.5279 -3.1418 0.7304 -0.8091 -0.3997 13.7407 -4.1922 -1.5510 2.2182 6.0705 -3.5422 4.2921 -3.6371 4.2751 41.8812 -45.4251 50.4345 0.0000 0.0000 17.8340 -1.1004 -7.9793 -6.9004 0.0000 0.0000 -0.0000 -0.0000 -0.0000 0.0000 -9.8856 0.8882 -17.3399 11.1022 61.8100 -38.9157 -0.0000 -0.0000 -56.0032 -20.4158 1.0369 9.7034 -0.0000 -0.0000 0.0000 0.0000 0.0000 0.0000 -45.0979 5.2226 -6.2345 24.4754 0.0000 0.0000 34.5806 -6.9407 11.1497 0.3195 0.0000 0.0000 -7.5136 5.4951 0.8739 37.4619 0.0000 0.0000 -19.3616 -7.1649 -7.0673 -2.0839 0.0000 -0.0000
 7.0495 35.3869 22.7596 -101.0769 0.7432 4.4746 8.0118 0.4893 -0.2804 4.3828 -0.4920 -0.1956 5.7988 -3.5423 -3.2076 0.7681 -0.8168 -0.4100 13.6797 -4.1411 -1.5686 2.1476 6.1020 -3.4425 4.2535 -3.6664 4.1824 42.1367 -45.3451 50.5093 0.0000 0.0000 17.8003 -0.9091 -7.9723 -6.9974 0.0000 0.0000 -0.0000 0.0000 -0.0000 0.0000 -10.0170 0.7511 -17.5531 12.0225 62.0902 -40.1061 -0.0000 -0.0000 -56.1277 -20.0215 0.6416 9.2137 0.0000 -0.0000 -0.0000 0.0000 0.0000 0.0000 -45.2524 5.2434 -6.2273 24.8875 0.0000 0.0000 34.1971 -6.2012 11.1052 0.9982 0.0000 0.0000 -6.7818 5.6729 0.5712 37.0882 0.0000 0.0000 -19.5211 -7.1501 -7.0900 -2.0542 0.0000 -0.0000
 7.0531 35.4139 22.9647 -101.2428 0.5111 4.7808 7.8797 0.5842 -0.2995 4.3760 -0.4553 -0.1948 5.8390 -3.5464 -3.2785 0.8052 -0.8274 -0.4212 13.6331 -4.0896 -1.5866 2.0785 6.1356 -3.3376 4.2284 -3.6845 4.0842 42.4016 -45.2900 50.5937 0.0000 0.0000 17.7730 -0.7405 -7.9574 -7.0908 -0.0000 0.0000 -0.0000 -0.0000 0.0000 0.0000 -10.1263 0.5961 -17.7023 13.0021 62.4634 -41.2822 -0.0000 -0.0000 -56.2863 -19.6603 0.6312 8.9556 0.0000 0.0000 0.0000 -0.0000 -0.0000 0.0000 -45.2601 5.3249 -6.2253 25.1850 0.0000 0.0000 33.7350 -5.7925 10.9463 2.2820 0.0000 0.0000 -6.0106 5.9112 0.2490 36.6596 0.0000 0.0000 -19.6573 -7.1443 -7.0891 -2.0271 0.0000 -0.0000
 7.0589 35.4414 23.1705 -101.3874 0.2678 5.0790 7.7479 0.6849 -0.3176 4.3698 -0.4168 -0.1936 5.8483 -3.5458 -3.3560 0.8316 -0.8403 -0.4328 13.6042 -4.0362 -1.6018 2.0073 6.1708 -3.2254 4.2208 -3.7072 3.9897 42.6580 -45.2444 50.6659 0.0000 0.0000 17.7550 -0.6046 -7.9346 -7.1802 -0.0000 -0.0000 0.0000 -0.0000 -0.0000 0.0000 -10.2109 0.4362 -17.7738 14.0365 62.9347 -42.4416 -0.0000 -0.0000 -56.4922 -19.3446 1.0373 8.9428 0.0000 0.0000 -0.0000 0.0000 0.0000 -0.0000 -45.1710 5.4338 -6.2021 25.3533 0.0000 0.0000 33.6364 -5.9747 10.7136 2.8044 0.0000 0.0000 -5.2411 6.1600 -0.0777 36.1968 0.0000 0.0000 -19.7746 -7.1429 -7.0755 -2.0033 0.0000 -0.0000
 7.0645 35.4697 23.3750 -101.5007 0.0341 5.3597 7.6135 0.7783 -0.3321 4.3587 -0.3746 -0.1914 5.8297 -3.5434 -3.4337 0.8475 -0.8568 -0.4421 13.5895 -3.9833 -1.6146 1.9331 6.2082 -3.1039 4.2298 -3.7410 3.9045 42.8963 -45.2051 50.7154 0.0000 0.0000 17.7483 -0.5073 -7.9031 -7.2646 -0.0000 0.0000 -0.0000 0.0000 -0.0000 -0.0000 -10.2720 0.2874 -17.7861 15.2196 63.4177 -43.6763 -0.0000 -0.0000 -56.6886 -19.0219 1.6036 9.0420 0.0000 -0.0000 -0.0000 -0.0000 -0.0000 0.0000 -45.0156 5.5416 -6.1756 25.4269 0.0000 0.0000 33.7642 -6.5374 10.4250 2.8249 0.0000 0.0000 -4.4948 6.3914 -0.3911 35.7130 0.0000 0.0000 -19.8783 -7.1411 -7.0620 -1.9822 0.0000 -0.0000
 7.0686 35.4994 23.5764 -101.5706 -0.1694 5.6179 7.4765 0.8463 -0.3373 4.3359 -0.3312 -0.1887 5.7732 -3.5360 -3.5081 0.8471 -0.8761 -0.4470 13.6139 -3.9349 -1.6268 1.8490 6.2485 -2.9748 4.2694 -3.8051 3.8387 43.0901 -45.1650 50.7106 0.0000 0.0000 17.7541 -0.4563 -7.8632 -7.3436 -0.0000 0.0000 -0.0000 -0.0000 -0.0000 0.0000 -10.2886 0.1813 -17.7712 16.6042 63.8085 -45.0374 -0.0000 -0.0000 -56.8216 -18.6664 2.0134 9.0584 0.0000 0.0000 0.0000 0.0000 0.0000 0.0000 -44.8266 5.6261 -6.1853 25.4392 0.0000 0.0000 33.9486 -7.1883 10.1158 2.6797 0.0000 0.0000 -3.7938 6.5818 -0.6798 35.2168 0.0000 0.0000 -19.9698 -7.1356 -7.0581 -1.9632 0.0000 -0.0000
 7.0717 35.5302 23.7734 -101.5937 -0.3359 5.8530 7.3269 0.8825 -0.3287 4.2968 -0.2905 -0.1859 5.7022 -3.5251 -3.5806 0.8442 -0.8923 -0.4522 13.6246 -3.8900 -1.6374 1.7693 6.2903 -2.8365 4.3178 -3.8848 3.7775 43.2626 -45.1234 50.6901 0.0000 0.0000 17.7636 -0.4481 -7.7924 -7.3866 0.0000 -0.0000 0.0000 -0.0000 0.0000 -0.0000 -10.2977 0.1045 -17.7222 18.2203 64.1039 -46.5551 -0.0000 -0.0000 -56.9167 -18.3099 2.1154 9.0419 -0.0000 0.0000 0.0000 0.0000 0.0000 -0.0000 -44.6279 5.6807 -6.2327 25.4261 0.0000 0.0000 34.0956 -7.7971 9.8071 2.5485 0.0000 0.0000 -3.1491 6.7273 -0.9412 34.7166 0.0000 0.0000 -20.0514 -7.1273 -7.0633 -1.9466 0.0000 -0.0000
 7.0737 35.5621 23.9660 -101.5692 -0.4631 6.0658 7.1725 0.8841 -0.3069 4.2428 -0.2536 -0.1834 5.5999 -3.5115 -3.6490 0.8331 -0.9037 -0.4573 13.6427 -3.8481 -1.6417 1.6929 6.3336 -2.6966 4.3695 -3.9830 3.7152 43.4315 -45.0735 50.6582 0.0000 0.0000 17.7755 -0.4827 -7.7050 -7.4117 0.0000 -0.0000 0.0000 -0.0000 -0.0000 0.0000 -10.2889 0.0732 -17.6492 19.9835 64.3034 -48.1457 -0.0000 -0.0000 -57.0195 -17.9491 1.9707 9.1995 -0.0000 0.0000 -0.0000 0.0000 0.0000 -0.0000 -44.4293 5.7007 -6.2890 25.4104 0.0000 0.0000 34.1884 -8.3928 9.5004 2.4748 0.0000 0.0000 -2.5631 6.8271 -1.1747 34.2133 0.0000 0.0000 -20.1227 -7.1162 -7.0772 -1.9328 0.0000 -0.0000
